<svg xmlns="http://www.w3.org/2000/svg" viewBox="0 0 640 360" role="img" aria-labelledby="title desc">
  <title id="title">Hyundai Creta rental car</title>
  <desc id="desc">Green SUV rental car illustration.</desc>
  <rect width="640" height="360" fill="#eefaf3"/>
  <path d="M70 241h493c18 0 32-14 32-32v-28c0-20-15-37-35-39l-71-8-65-60c-14-13-32-20-51-20H221c-24 0-46 12-59 32l-37 57-40 11c-17 5-29 20-29 38v34c0 8 6 15 14 15Z" fill="#0f8f5f"/>
  <path d="M225 86h141c14 0 27 5 37 15l42 40H160l31-38c8-11 21-17 34-17Z" fill="#a7f3d0"/>
  <path d="M229 96h68v45H174l27-34c6-7 17-11 28-11Zm91 0h44c10 0 20 4 27 11l34 34H320V96Z" fill="#d1fae5"/>
  <path d="M90 207h70m393 0h28" stroke="#ffffff" stroke-width="13" stroke-linecap="round"/>
  <path d="M147 166h392" stroke="#064e3b" stroke-width="5" stroke-linecap="round" opacity=".35"/>
  <circle cx="185" cy="244" r="52" fill="#111827"/>
  <circle cx="185" cy="244" r="23" fill="#d1d5db"/>
  <circle cx="481" cy="244" r="52" fill="#111827"/>
  <circle cx="481" cy="244" r="23" fill="#d1d5db"/>
</svg>
