<svg xmlns="http://www.w3.org/2000/svg" viewBox="0 0 640 360" role="img" aria-labelledby="title desc">
  <title id="title">Toyota Yaris rental car</title>
  <desc id="desc">Compact blue rental car illustration.</desc>
  <rect width="640" height="360" fill="#eef5ff"/>
  <path d="M86 242h468c19 0 34-15 34-34v-18c0-17-12-31-29-34l-76-13-64-62c-12-12-28-18-45-18H238c-25 0-48 13-61 34l-31 50-53 17c-15 5-25 18-25 34v26c0 10 8 18 18 18Z" fill="#1769e0"/>
  <path d="M232 93h139c10 0 20 4 27 11l40 39H179l28-34c6-10 16-16 25-16Z" fill="#bfe1ff"/>
  <path d="M218 101h71v42H184l25-31c3-6 7-9 9-11Zm91 0h62c8 0 15 3 20 8l34 34H309v-42Z" fill="#d9efff"/>
  <circle cx="194" cy="244" r="47" fill="#111827"/>
  <circle cx="194" cy="244" r="20" fill="#d1d5db"/>
  <circle cx="482" cy="244" r="47" fill="#111827"/>
  <circle cx="482" cy="244" r="20" fill="#d1d5db"/>
  <path d="M92 209h57m373 0h52" stroke="#ffffff" stroke-width="13" stroke-linecap="round"/>
</svg>
